<svg xmlns="http://www.w3.org/2000/svg" width="1280" height="480" viewBox="0 0 1280 480"><defs><linearGradient id="g" x2="1" y2="1"><stop stop-color="#06201B"/><stop offset="1" stop-color="#11544A"/></linearGradient><radialGradient id="r"><stop stop-color="#3AD77F" stop-opacity=".3"/><stop offset="1" stop-color="#3AD77F" stop-opacity="0"/></radialGradient></defs><rect width="1280" height="480" rx="24" fill="url(#g)"/><circle cx="1040" cy="220" r="300" fill="url(#r)"/><path d="M820 305 L900 245 L970 270 L1045 175 L1135 205" fill="none" stroke="#3AD77F" stroke-width="5"/><g fill="#B7FF8E"><circle cx="820" cy="305" r="9"/><circle cx="900" cy="245" r="9"/><circle cx="970" cy="270" r="9"/><circle cx="1045" cy="175" r="9"/><circle cx="1135" cy="205" r="9"/></g><rect x="1060" y="290" width="120" height="78" rx="16" fill="#0A332A" stroke="#E5FFEF" stroke-opacity=".25"/><path d="M1084 330h48v-22h20l18 22v18h-12a14 14 0 0 1-28 0h-24a14 14 0 0 1-28 0h-8v-18h14z" fill="none" stroke="#B7FF8E" stroke-width="4"/><text x="64" y="75" fill="#B7FF8E" font-family="Montserrat,Arial" font-size="18" font-weight="700" letter-spacing="4">EAV / 03</text><text x="64" y="178" fill="#E5FFEF" font-family="Montserrat,Arial" font-size="72" font-weight="700">DISPATCH</text><text x="66" y="242" fill="#E5FFEF" font-family="Georgia,serif" font-size="34" font-style="italic">Logistics and dispatch workflows.</text><rect x="66" y="282" width="80" height="5" rx="2" fill="#3AD77F"/><text x="66" y="345" fill="#E5FFEF" font-family="Montserrat,Arial" font-size="17" letter-spacing="4">JAVA  ·  SPRING BOOT  ·  POSTGRESQL</text></svg>